<?xml version="1.0" encoding="UTF-8" standalone="no"?>
<svg
   viewBox="0 0 1496 1496"
   height="1496"
   width="1496"
   xml:space="preserve"
   id="svg2"
   version="1.1"
   sodipodi:docname="43983.svg"
   inkscape:version="1.2 (dc2aeda, 2022-05-15)"
   xmlns:inkscape="http://www.inkscape.org/namespaces/inkscape"
   xmlns:sodipodi="http://sodipodi.sourceforge.net/DTD/sodipodi-0.dtd"
   xmlns="http://www.w3.org/2000/svg"
   xmlns:svg="http://www.w3.org/2000/svg"
   xmlns:rdf="http://www.w3.org/1999/02/22-rdf-syntax-ns#"
   xmlns:cc="http://creativecommons.org/ns#"
   xmlns:dc="http://purl.org/dc/elements/1.1/"><sodipodi:namedview
     id="namedview1200"
     pagecolor="#ffffff"
     bordercolor="#000000"
     borderopacity="0.25"
     inkscape:showpageshadow="2"
     inkscape:pageopacity="0.0"
     inkscape:pagecheckerboard="0"
     inkscape:deskcolor="#d1d1d1"
     showgrid="false"
     inkscape:zoom="0.27414568"
     inkscape:cx="430.42808"
     inkscape:cy="689.41447"
     inkscape:window-width="1280"
     inkscape:window-height="674"
     inkscape:window-x="0"
     inkscape:window-y="25"
     inkscape:window-maximized="0"
     inkscape:current-layer="svg2" /><metadata
     id="metadata8"><rdf:RDF><cc:Work
         rdf:about=""><dc:format>image/svg+xml</dc:format><dc:type
           rdf:resource="http://purl.org/dc/dcmitype/StillImage" /></cc:Work></rdf:RDF></metadata><defs
     id="defs6"><clipPath
       clipPathUnits="userSpaceOnUse"
       id="clipPath7720"><ellipse
         style="fill:none;fill-opacity:0.996078;stroke:#000000;stroke-width:11.096"
         id="ellipse7722"
         cx="5609.9883"
         cy="-5606.667"
         rx="4385.3159"
         ry="4429.7725"
         transform="scale(1,-1)" /></clipPath><clipPath
       clipPathUnits="userSpaceOnUse"
       id="clipPath7724"><ellipse
         style="fill:none;fill-opacity:0.996078;stroke:#000000;stroke-width:11.096"
         id="ellipse7726"
         cx="5609.9883"
         cy="-5606.667"
         rx="4385.3159"
         ry="4429.7725"
         transform="scale(1,-1)" /></clipPath><clipPath
       clipPathUnits="userSpaceOnUse"
       id="clipPath7728"><ellipse
         style="fill:none;fill-opacity:0.996078;stroke:#000000;stroke-width:11.096"
         id="ellipse7730"
         cx="5609.9883"
         cy="-5606.667"
         rx="4385.3159"
         ry="4429.7725"
         transform="scale(1,-1)" /></clipPath><clipPath
       clipPathUnits="userSpaceOnUse"
       id="clipPath7732"><ellipse
         style="fill:none;fill-opacity:0.996078;stroke:#000000;stroke-width:11.096"
         id="ellipse7734"
         cx="5609.9883"
         cy="-5606.667"
         rx="4385.3159"
         ry="4429.7725"
         transform="scale(1,-1)" /></clipPath><clipPath
       clipPathUnits="userSpaceOnUse"
       id="clipPath7736"><ellipse
         style="fill:none;fill-opacity:0.996078;stroke:#000000;stroke-width:11.096"
         id="ellipse7738"
         cx="5609.9883"
         cy="-5606.667"
         rx="4385.3159"
         ry="4429.7725"
         transform="scale(1,-1)" /></clipPath><clipPath
       clipPathUnits="userSpaceOnUse"
       id="clipPath7740"><ellipse
         style="fill:none;fill-opacity:0.996078;stroke:#000000;stroke-width:11.096"
         id="ellipse7742"
         cx="5609.9883"
         cy="-5606.667"
         rx="4385.3159"
         ry="4429.7725"
         transform="scale(1,-1)" /></clipPath><clipPath
       clipPathUnits="userSpaceOnUse"
       id="clipPath7744"><ellipse
         style="fill:none;fill-opacity:0.996078;stroke:#000000;stroke-width:11.096"
         id="ellipse7746"
         cx="5609.9883"
         cy="-5606.667"
         rx="4385.3159"
         ry="4429.7725"
         transform="scale(1,-1)" /></clipPath></defs><path
     d="M 884.10308,603.88724 1301.3857,580.73131 C 1280.9828,519.17528 1250.6078,462.19853 1212.144,411.6769 L 777.65992,387.56532 1173.2217,365.61018 C 1067.0342,252.50576 916.22582,181.78404 748.82677,181.78404 c -108.95486,0 -210.86143,30.01951 -298.06006,82.10431 L 835.51046,285.24662 384.1227,310.28895 C 327.69755,355.71264 279.9552,411.43532 243.685,474.62909 l 485.38943,26.93944 -513.32727,28.4813 c -27.43425,62.4442 -44.37157,130.55482 -48.21987,202.18249 H 1330.1263 c -1.9224,-35.77833 -7.1976,-70.65783 -15.2979,-104.44316 L 884.10308,603.88724"
     style="fill:#00ccff;fill-opacity:1;fill-rule:nonzero;stroke:none;stroke-width:0.355261"
     id="path62-9" /><g
     id="g7756"><g
       id="g2731"
       style="fill:#3aaa35;fill-opacity:1"
       transform="matrix(0.13333333,0,0,-0.13333333,2.5840859,1471.1352)"
       clip-path="url(#clipPath7744)"><path
         id="path16"
         style="fill:#3aaa35;fill-opacity:1;fill-rule:nonzero;stroke:none"
         d="m 8469.66,7845.36 -46.41,-410.57 231.94,337.36 c 24.78,36.05 10.66,85.76 -29.38,103.39 l -58.7,25.84 c -43.06,18.96 -92.17,-9.27 -97.45,-56.02" /><path
         id="path18"
         style="fill:#3aaa35;fill-opacity:1;fill-rule:nonzero;stroke:none"
         d="m 8806.49,7450.45 -412.52,23.41 349.78,-212.74 c 37.38,-22.73 86.23,-5.85 101.59,35.11 l 22.53,60.04 c 16.52,44.06 -14.4,91.51 -61.38,94.18" /><path
         id="path20"
         style="fill:#3aaa35;fill-opacity:1;fill-rule:nonzero;stroke:none"
         d="m 8747.38,7701.71 -324.52,-255.74 402.95,72.36 c 43.06,7.73 68.47,52.73 52.84,93.59 l -22.91,59.91 c -16.79,43.95 -71.4,59 -108.36,29.88" /><path
         id="path22"
         style="fill:#3aaa35;fill-opacity:1;fill-rule:nonzero;stroke:none"
         d="m 8700.5,7157.38 -283.1,300.96 107.26,-395.09 c 11.45,-42.22 58.5,-63.61 97.85,-44.47 l 57.68,28.04 c 42.31,20.58 52.54,76.29 20.31,110.56" /><path
         id="path24"
         style="fill:#3aaa35;fill-opacity:1;fill-rule:nonzero;stroke:none"
         d="m 7159.27,5931.27 170.23,137.42 189.2,-129.73 9.99,-225.75 -369.42,-2.82 z M 6667.51,3944.39 c 169.26,112.07 338.99,223.44 510.08,332.7 789.01,503.93 1621.72,974.97 2516.91,1257.77 -38.5,-1.56 -79.46,-3.43 -121.94,-5.53 -319.85,-15.85 -642.18,-36.84 -964.04,-67.57 l -194.6,1904.69 15.17,65.65 3.08,-4.13 -1.59,10.54 1.3,5.63 22.52,13.89 -19.6,-1.23 2.06,8.9 -8.09,-9.28 -0.9,-0.06 -57.61,380.13 c -7.05,46.52 -57.18,72.88 -99.5,52.29 l -57.67,-28.04 c -39.35,-19.13 -51.59,-69.34 -25.45,-104.43 l 193.35,-259.62 -281.53,218.99 c -37.14,28.9 -91.65,13.49 -108.17,-30.56 l -22.53,-60.05 c -15.36,-40.96 10.32,-85.8 53.44,-93.26 l 381.85,-66.08 7.74,-10.39 -6.92,-0.43 -0.48,4.63 -0.34,-4.69 -362.01,-22.83 c -46.96,-2.96 -77.59,-50.61 -60.78,-94.56 l 22.9,-59.9 c 15.63,-40.87 64.58,-57.44 101.82,-34.47 l 295.91,182.55 v -0.05 l -236.53,-271.35 c -30.93,-35.47 -18.58,-90.75 24.47,-109.71 l 58.71,-25.84 c 40.03,-17.63 86.24,5.51 96.1,48.14 l 45.17,195.42 -135.9,-1838.73 c -103.46,-12.48 -206.74,-26.19 -309.78,-41.31 l -21.25,537.03 -626.87,500.47 -564.01,-530.1 v -765.23 c -203.66,-59.52 -404.63,-128.31 -601.28,-208.02 -82.21,-33.33 -161.62,-70.57 -241.26,-108.49 -25.02,-12.48 -207.27,-129.19 -221.82,-120.22 152.26,-93.86 300.47,-194.39 444.67,-300.01 191.17,-139.99 376.03,-288.29 555.2,-443.25" /></g><path
       id="path26"
       style="fill:#3aaa35;fill-opacity:1;fill-rule:nonzero;stroke:none"
       d="m 6869.06,3765.06 c 285.48,-261.2 555.93,-539.06 812.62,-828.08 22.63,-25.48 45.08,-51.11 67.51,-76.77 212.55,177.51 410.73,372.39 599.95,574.21 215.02,229.34 418.77,468.91 620.4,710 210.24,251.4 385.68,521.99 552.24,803.79 62.13,105.11 124.64,210.68 186.34,316.98 -44.94,-14.61 -89.78,-29.53 -134.41,-45.15 C 8602.94,4880.23 7724.54,4331.19 6869.06,3765.06"
       transform="matrix(0.13333333,0,0,-0.13333333,2.5840859,1471.1352)"
       clip-path="url(#clipPath7740)" /><path
       id="path28"
       style="fill:#3aaa35;fill-opacity:1;fill-rule:nonzero;stroke:none"
       d="M 9084.27,3875.74 C 8722.69,3445.56 8348.2,3024.49 7917.63,2663.68 c 143.8,-171.23 283.3,-346.25 417.76,-525.05 903.83,726.77 1512.41,1804.8 1620.34,3026.77 -254.68,-453.46 -536.49,-891.13 -871.46,-1289.66"
       transform="matrix(0.13333333,0,0,-0.13333333,2.5840859,1471.1352)"
       clip-path="url(#clipPath7736)" /></g><path
     id="path30"
     style="fill:#008d36;fill-opacity:1;fill-rule:nonzero;stroke:none"
     d="m 5961.95,4219.05 c -530.22,375.19 -1105.03,650.42 -1719.33,860.68 -347.6,118.97 -702.9,215.46 -1062.94,288.6 v 355.75 c 119.87,-5.37 217.25,-14.95 283.07,-39.15 -62.66,54.64 -136.94,129.74 -207.59,228.88 -1.1,1.52 -2.08,3.02 -3.15,4.53 86.97,-10.67 158.69,-31.77 210.74,-50.91 -62.66,54.64 -136.94,129.74 -207.59,228.88 -4.69,6.57 -9.13,13.08 -13.61,19.6 91.63,-10.22 167.11,-32.09 221.2,-51.98 -60.11,52.42 -130.89,123.92 -198.94,217.16 81.61,-11.08 149.3,-31.05 198.94,-49.3 -62.66,54.64 -136.94,129.74 -207.59,228.88 -52.73,73.96 -91.62,144.72 -120.36,206.11 -32.94,-65.21 -75.82,-139.03 -131.57,-216.19 -64.94,-89.88 -131.37,-162.2 -190.43,-218.8 45.89,16.85 109.96,36.3 188.13,47.83 -64.21,-88.4 -129.78,-159.76 -188.13,-215.69 50.22,18.43 122.19,39.97 210.59,50.86 -6.52,-9.46 -13.24,-18.98 -20.16,-28.56 -64.94,-89.87 -131.37,-162.2 -190.43,-218.8 48.14,17.67 116.28,38.19 199.71,49.45 -3.1,-4.38 -6.09,-8.74 -9.28,-13.15 -64.94,-89.87 -131.37,-162.2 -190.43,-218.8 63.31,23.24 161.19,33.81 283.08,39.3 v -339.82 c -92.67,17.86 -185.54,34.66 -278.74,49.41 -174.13,27.55 -349.04,55 -524.56,78.2 v 330.43 c 171.09,-5.77 309.51,6.29 402.28,-29.59 -85.49,78.4 -186.84,186.18 -283.25,328.44 -1.49,2.2 -2.86,4.36 -4.33,6.57 118.73,-15.32 216.55,-45.65 287.58,-73.12 -85.49,78.4 -186.84,186.17 -283.25,328.43 -6.45,9.52 -12.57,18.95 -18.72,28.38 125.21,-14.64 228.1,-46.27 301.97,-74.84 -82.06,75.25 -178.67,177.9 -271.55,311.78 111.48,-15.89 203.75,-44.68 271.55,-70.9 -85.49,78.4 -186.84,186.17 -283.25,328.43 -71.93,106.14 -124.99,207.68 -164.22,295.76 -44.95,-93.57 -103.44,-199.49 -179.51,-310.22 -88.6,-128.97 -179.26,-232.75 -259.83,-313.97 62.62,24.17 150.04,52.08 256.69,68.64 -87.6,-126.86 -177.06,-229.25 -256.69,-309.52 68.51,26.45 166.73,57.36 287.33,72.98 -8.9,-13.57 -18.06,-27.24 -27.5,-40.97 -88.6,-128.97 -179.26,-232.76 -259.83,-313.98 65.68,25.36 158.67,54.8 272.5,70.96 -4.23,-6.3 -8.32,-12.55 -12.67,-18.87 -88.6,-128.97 -179.26,-232.75 -259.83,-313.98 89.18,34.43 228.46,23.7 402.29,29.62 v -319.97 c -284.31,35.19 -570.12,57.38 -856.59,48.22 -32.59,-1.04 -58.2,-3.81 -78.43,-9.7 220.82,-54.03 434.78,-134.78 648.96,-213.82 310.92,-114.74 628.38,-209.76 937.85,-328.87 1128.66,-434.4 2174.08,-1069.19 3129.13,-1807.91 460.13,-355.9 884.25,-750.91 1293.46,-1163.76 118.64,-119.7 236.28,-242.25 349.88,-368.68 184.14,97.27 360.62,207.1 528.09,328.64 -249.51,332.3 -516.81,651.34 -798.7,956.18 -426.11,460.82 -889,893.22 -1402.04,1256.24"
     transform="matrix(0.13333333,0,0,-0.13333333,2.5840859,1471.1352)"
     clip-path="url(#clipPath7732)" /><path
     id="path32"
     style="fill:#008d36;fill-opacity:1;fill-rule:nonzero;stroke:none"
     d="m 6941.61,2019.09 c -406.46,399.45 -826.81,778.82 -1284.63,1119.11 -466.88,347.02 -956.28,671.5 -1461.11,960.75 -510.36,292.42 -1045.71,539.31 -1598.48,740.22 -270.63,98.36 -545.74,182.99 -815.85,282.94 -184.79,68.38 -373.23,140.7 -566.4,187.87 0.36,-6.71 0.91,-13.41 1.32,-20.11 399.68,-259.4 805.29,-509.77 1198.05,-779.69 853.9,-586.81 1599.19,-1303.67 2322.37,-2041.71 345.61,-352.7 703.54,-698.09 1031.25,-1067.61 61.87,-69.76 121.9,-140.92 179.76,-213.56 510.63,41.21 996.47,170.07 1442.64,371.32 -145.15,158.43 -296.81,310.98 -448.92,460.47"
     transform="matrix(0.13333333,0,0,-0.13333333,2.5840859,1471.1352)"
     clip-path="url(#clipPath7728)" /><path
     id="path34"
     style="fill:#008d36;fill-opacity:1;fill-rule:nonzero;stroke:none"
     d="m 1832.47,3921.2 c -162.24,187.97 -323.78,376.71 -491.3,559.91 233.53,-925.19 774.48,-1760.36 1520.81,-2355.01 290.67,-231.59 609.46,-423.87 946.65,-573.66 -353.98,522.78 -745.08,1019.71 -1169.79,1487.31 -268.02,295.08 -545.69,579.44 -806.37,881.45"
     transform="matrix(0.13333333,0,0,-0.13333333,2.5840859,1471.1352)"
     clip-path="url(#clipPath7724)" /><path
     id="path36"
     style="fill:#008d36;fill-opacity:1;fill-rule:nonzero;stroke:none"
     d="m 4388.73,2449.43 c -358.49,362.6 -723.52,719.24 -1107.02,1055.51 -375.44,329.22 -770.45,628.69 -1185.83,905.68 -279.75,186.54 -564.29,365.68 -847.19,547.35 0.12,-0.81 0.26,-1.61 0.36,-2.41 309.26,-307.9 588.51,-643.59 874.94,-972.46 266.88,-306.43 554.89,-592.64 823.94,-896.98 258.36,-292.24 504.01,-595.66 736.86,-908.58 190.05,-255.4 370.42,-517.67 541.55,-785.8 438.57,-143.69 899.82,-218.84 1364.77,-218.84 9.61,0 19.15,0.4 28.75,0.4 -66.67,77.04 -135.31,152.34 -205.13,226.1 -336.21,355.11 -682.17,702.27 -1026,1050.03"
     transform="matrix(0.13333333,0,0,-0.13333333,2.5840859,1471.1352)"
     clip-path="url(#clipPath7720)" /><g
     id="g5770"
     transform="matrix(0.29216354,0,0,0.29216354,1582.4721,342.97577)"
     style="fill:#ffcc00"><circle
       cx="176"
       cy="416"
       r="32"
       id="circle5275"
       style="fill:#ffcc00" /><circle
       cx="400"
       cy="416"
       r="32"
       id="circle5277"
       style="fill:#ffcc00" /><path
       d="M 456.8,120.78 A 23.92,23.92 0 0 0 438.24,112 H 133.89 L 127.76,77.22 A 16,16 0 0 0 112,64 H 48 a 16,16 0 0 0 0,32 h 50.58 l 45.66,258.78 A 16,16 0 0 0 160,368 h 256 a 16,16 0 0 0 0,-32 H 173.42 l -5.64,-32 H 409.44 A 24.07,24.07 0 0 0 433,284.71 l 28.8,-144 a 24,24 0 0 0 -5,-19.93 z"
       id="path5279"
       style="fill:#ffcc00" /></g><path
     d="m 1098.2293,791.43816 h -6.0724 a 2.0241417,2.0241417 0 0 1 -2.0241,-2.02415 v -86.27397 a 2.0241417,2.0241417 0 0 0 -2.6517,-1.9533 53.093237,53.093237 0 0 1 -14.3309,2.41885 c -0.5971,0 -1.1639,0.0253 -1.7205,0.0253 a 54.763154,54.763154 0 0 1 -26.744,-6.90232 4.1646715,4.1646715 0 0 0 -4.0483,0 54.742912,54.742912 0 0 1 -26.7389,6.90232 53.695419,53.695419 0 0 1 -26.54666,-6.97823 4.1545508,4.1545508 0 0 0 -4.09382,0 54.722671,54.722671 0 0 1 -26.90085,6.98329 53.735902,53.735902 0 0 1 -26.70348,-7.0845 4.1747922,4.1747922 0 0 0 -4.12925,0 53.735902,53.735902 0 0 1 -26.70349,7.0845 c -0.55158,0 -1.10822,0 -1.70534,-0.0253 h -0.0304 a 53.088176,53.088176 0 0 1 -14.81672,-2.57572 2.0241417,2.0241417 0 0 0 -2.64657,1.92293 v 86.45615 a 2.0241417,2.0241417 0 0 1 -2.02414,2.02415 h -5.81941 c -4.37214,0 -8.14717,3.36007 -8.33946,7.73222 a 8.0965668,8.0965668 0 0 0 8.08645,8.46091 h 226.45094 c 4.3722,0 8.1472,-3.36008 8.3395,-7.73222 a 8.0965668,8.0965668 0 0 0 -8.0865,-8.46091 z M 968.6842,757.02775 a 2.0241417,2.0241417 0 0 1 -2.02414,2.02414 h -44.53112 a 2.0241417,2.0241417 0 0 1 -2.02414,-2.02414 v -32.38627 a 6.0724251,6.0724251 0 0 1 6.07242,-6.07242 h 36.43455 a 6.0724251,6.0724251 0 0 1 6.07243,6.07242 z m 78.9416,34.41041 h -36.4346 a 2.0241417,2.0241417 0 0 1 -2.0241,-2.02415 v -64.77253 a 6.0724251,6.0724251 0 0 1 6.0724,-6.07242 h 28.338 a 6.0724251,6.0724251 0 0 1 6.0724,6.07242 v 64.77253 a 2.0241417,2.0241417 0 0 1 -2.0241,2.02415 z m 56.9644,-140.53616 -21.719,-49.83943 c -5.6879,-12.23088 -18.6778,-20.13515 -33.0948,-20.13515 H 919.95299 c -14.41695,0 -27.40688,7.90427 -33.09472,20.13515 L 865.13923,650.902 c -4.55432,9.82215 1.46244,19.90743 1.4675,19.91249 l 0.14169,0.22772 c 0.24796,0.39471 0.68821,1.01207 0.95641,1.40678 0.0253,0.0304 0.0455,0.0658 0.0708,0.1012 l 2.53018,3.06152 a 3.7699639,3.7699639 0 0 0 0.30362,0.32892 l 2.53018,2.44415 0.21253,0.18218 a 35.245367,35.245367 0 0 0 4.75168,3.43092 v 0.0253 a 37.446621,37.446621 0 0 0 18.21727,5.3994 H 897.571 A 38.499175,38.499175 0 0 0 923.82918,677.145 l 0.16699,-0.15688 a 4.0179213,4.0179213 0 0 1 5.51072,0 l 0.167,0.15688 a 39.116538,39.116538 0 0 0 52.86046,0 4.0482834,4.0482834 0 0 1 5.5006,0 39.121599,39.121599 0 0 0 52.73405,0.11638 3.9875591,3.9875591 0 0 1 5.4196,0 38.868581,38.868581 0 0 0 26.4708,10.1612 h 1.26 a 36.105627,36.105627 0 0 0 17.7112,-5.41458 c 0.4808,-0.28844 0.9412,-0.59207 1.4068,-0.89569 a 36.095507,36.095507 0 0 0 9.2402,-9.01249 l 0.8805,-1.33087 q 0.1316,-0.20241 0.2429,-0.42507 c 0.84,-1.7104 5.3437,-10.5053 1.1892,-19.44188 z"
     id="path2644"
     style="fill:#ffcc00;fill-opacity:1;stroke-width:0.506035" /><circle
     style="fill:#ffcc00;fill-opacity:1;stroke:#3aaa35;stroke-opacity:1"
     id="path7948"
     cx="1763.6609"
     cy="-93.016266"
     r="125.8455" /><g
     id="g4562"
     transform="matrix(0.36600953,0,0,0.36600953,-47.399343,114.74251)"><circle
       cx="176"
       cy="416"
       r="16"
       fill="none"
       stroke="currentColor"
       stroke-linecap="round"
       stroke-linejoin="round"
       stroke-width="32"
       id="circle4064" /><circle
       cx="400"
       cy="416"
       r="16"
       fill="none"
       stroke="currentColor"
       stroke-linecap="round"
       stroke-linejoin="round"
       stroke-width="32"
       id="circle4066" /><path
       fill="none"
       stroke="currentColor"
       stroke-linecap="round"
       stroke-linejoin="round"
       stroke-width="32"
       d="m 48,80 h 64 l 48,272 h 256"
       id="path4068" /><path
       d="m 160,288 h 249.44 a 8,8 0 0 0 7.85,-6.43 l 28.8,-144 A 8,8 0 0 0 438.24,128 H 128"
       fill="none"
       stroke="currentColor"
       stroke-linecap="round"
       stroke-linejoin="round"
       stroke-width="32"
       id="path4070" /></g></svg>
